<?xml version="1.0" encoding="UTF-8"?>
<svg xmlns="http://www.w3.org/2000/svg" version="1.1" viewBox="0 0 58 58">
  <defs>
    <style>
      .cls-1, .cls-2 {
        fill: #0068cc;
      }

      .cls-3 {
        fill: #fff;
      }

      .cls-2 {
        stroke: #0068cc;
        stroke-miterlimit: 10;
      }
    </style>
  </defs>
  <!-- Generator: Adobe Illustrator 28.7.1, SVG Export Plug-In . SVG Version: 1.2.0 Build 142)  -->
  <g>
    <g id="_レイヤー_1">
      <path class="cls-2" d="M42.7,49.7c-2.2-10.9-6.6-20.3-11.2-25.2,2.9-2,4.8-5.4,4.8-9.2v-.2c-.1-6.1-5.1-11-11.2-11s-11,4.8-11.2,10.9v.4c0,3.7,1.8,6.9,4.5,9-4.3,4.6-8.1,13.6-10.2,25.1"/>
      <g>
        <g>
          <path d="M35.8,51.8c-4.1,0-7.5-2.9-8.2-7-.7-4.5,2.4-8.8,6.9-9.5.4,0,.9-.1,1.3-.1,4.1,0,7.5,2.9,8.2,7,.3,2.2-.2,4.4-1.5,6.2s-3.2,3-5.4,3.3c-.4,0-.9.1-1.3.1Z"/>
          <path class="cls-3" d="M35.8,35.7c3.8,0,7.1,2.7,7.7,6.5.7,4.2-2.2,8.2-6.5,8.9-.4,0-.8,0-1.2,0-3.8,0-7.1-2.7-7.7-6.5-.7-4.2,2.2-8.2,6.4-8.9.4,0,.8,0,1.2,0M35.8,34.7h0c-.5,0-.9,0-1.4.1-4.8.8-8.1,5.3-7.3,10.1.7,4.3,4.3,7.4,8.7,7.4s.9,0,1.4-.1c4.8-.8,8.1-5.3,7.3-10.1-.7-4.3-4.3-7.4-8.7-7.4h0Z"/>
        </g>
        <g>
          <rect x="44.1" y="45.3" width="1.4" height="8.9" transform="translate(-21.8 56.9) rotate(-54.1)"/>
          <polygon class="cls-1" points="41.4 45.2 39.4 48 48.2 54.4 50.2 51.6 41.4 45.2 41.4 45.2"/>
        </g>
        <g>
          <path class="cls-3" d="M35.8,50.1c-3.2,0-5.9-2.3-6.4-5.5-.3-1.7.1-3.5,1.2-4.9,1-1.4,2.5-2.3,4.3-2.6.4,0,.7,0,1,0,3.2,0,5.9,2.3,6.4,5.5.6,3.6-1.9,6.9-5.4,7.5-.4,0-.7,0-1,0Z"/>
          <path class="cls-1" d="M35.8,38.3c2.6,0,4.8,1.9,5.2,4.5.5,2.9-1.5,5.6-4.4,6.1-.3,0-.6,0-.9,0-2.6,0-4.8-1.9-5.2-4.5-.2-1.4.1-2.8.9-3.9s2-1.9,3.4-2.1c.3,0,.6,0,.9,0M35.8,35.8c-.4,0-.8,0-1.2,0-4.2.7-7.1,4.7-6.4,8.9.6,3.8,3.9,6.5,7.7,6.5s.8,0,1.2,0c4.3-.7,7.1-4.7,6.4-8.9-.6-3.8-3.9-6.5-7.7-6.5h0Z"/>
        </g>
      </g>
    </g>
  </g>
</svg>