<?xml version="1.0" encoding="UTF-8"?>
<svg xmlns="http://www.w3.org/2000/svg" version="1.1" viewBox="0 0 58 58">
  <defs>
    <style>
      .cls-1 {
        fill: orange;
      }

      .cls-1, .cls-2, .cls-3, .cls-4 {
        stroke-miterlimit: 10;
      }

      .cls-1, .cls-2, .cls-4 {
        stroke: orange;
      }

      .cls-2, .cls-3 {
        fill: #fff;
      }

      .cls-3 {
        stroke: #fff;
      }

      .cls-4 {
        fill: none;
      }
    </style>
  </defs>
  <!-- Generator: Adobe Illustrator 28.7.1, SVG Export Plug-In . SVG Version: 1.2.0 Build 142)  -->
  <g>
    <g id="_レイヤー_1">
      <rect class="cls-1" x="3.5" y="35.3" width="40.1" height="19.1"/>
      <g>
        <rect class="cls-3" x="9.4" y="41.1" width="3.6" height="3.6"/>
        <rect class="cls-3" x="15.4" y="41.1" width="3.6" height="3.6"/>
        <rect class="cls-3" x="9.4" y="46.9" width="3.6" height="3.6"/>
        <rect class="cls-3" x="15.4" y="47" width="3.6" height="3.6"/>
      </g>
      <rect class="cls-2" x="26.3" y="41.1" width="14.3" height="13.4"/>
      <g>
        <path class="cls-1" d="M13.5,31s.4,2.8-5,2.8-5-2.8-5-2.8v-7.4h10s0,7.4,0,7.4Z"/>
        <path class="cls-1" d="M23.6,31s.4,2.8-5,2.8-5-2.8-5-2.8v-7.4h10s0,7.4,0,7.4Z"/>
        <path class="cls-1" d="M33.6,31s.4,2.8-5,2.8-5-2.8-5-2.8v-7.4h10s0,7.4,0,7.4Z"/>
        <path class="cls-1" d="M43.6,31s.4,2.8-5,2.8-5-2.8-5-2.8v-7.4h10v7.4Z"/>
      </g>
      <line class="cls-4" x1="26.2" y1="44.6" x2="40.2" y2="44.6"/>
      <line class="cls-4" x1="26.3" y1="47.8" x2="40.2" y2="47.8"/>
      <line class="cls-4" x1="26.3" y1="51.1" x2="40.2" y2="51.1"/>
      <path class="cls-2" d="M46.9,3.6c-4.2,0-7.6,3.4-7.6,7.6s.3,2.5.9,3.6l-1,6.8,6.5-2.9c.4,0,.8.1,1.2.1,4.2,0,7.6-3.4,7.6-7.6s-3.4-7.6-7.6-7.6h0Z"/>
      <g>
        <path class="cls-1" d="M48.9,8.1c-1,0-1.9,1-1.9,2.3,0,1.3.1,4.4.1,4.4,0,0,3.6-2,3.6-4.3,0-1.3-.8-2.4-1.8-2.4h0Z"/>
        <path class="cls-1" d="M44.8,8c-1,0-1.9,1-1.9,2.3,0,2.3,3.5,4.4,3.5,4.4,0,0,.2-3.1.2-4.4s-.8-2.4-1.8-2.4Z"/>
      </g>
    </g>
  </g>
</svg>